# xmcd CD database file
#
# Track frame offsets:
#	150
#	2670
#	19753
#	41053
#	60290
#	83261
#	101192
#	120148
#	135511
#	158484
#	183137
#	200490
#	222123
#	238812
#	261086
#	284675
#	306104
#	324081
#	347263
#
# Disc length: 4902 seconds
#
# Revision: 0
# Processed by: cddbd v1.4PL0 Copyright (c) Steve Scherf et al.
# Submitted via: Feurio! 1.66 - http://www.feurio.com
#
DISCID=ed132413
DTITLE=Musiq (The Soulchild) - The Best Of Musiq
DYEAR=1900
DGENRE=R&B
TTITLE0=Musiq  - Interlude
TTITLE1=Musiq  - Newness
TTITLE2=Musiq  - Babymother
TTITLE3=Musiq  - Halfcrazy
TTITLE4=Musiq  - Don'tchange
TTITLE5=Musiq  - Previouscats
TTITLE6=Musiq  - Just Friends (Sunny)
TTITLE7=Musiq  - Seventeen
TTITLE8=Musiq  - Love
TTITLE9=Musiq  - Thereason
TTITLE10=Musiq  - Forthenight
TTITLE11=Musiq  - Girl Next Door
TTITLE12=Musiq  - Mary Go Round
TTITLE13=Musiq  - Whoknows
TTITLE14=Musiq  - Time
TTITLE15=Musiq  - Momentinlife
TTITLE16=Musiq  - Poparatzi
TTITLE17=Musiq  - Something
TTITLE18=Musiq  - Infatueighties
EXTD=
EXTT0=
EXTT1=
EXTT2=
EXTT3=
EXTT4=
EXTT5=
EXTT6=
EXTT7=
EXTT8=
EXTT9=
EXTT10=
EXTT11=
EXTT12=
EXTT13=
EXTT14=
EXTT15=
EXTT16=
EXTT17=
EXTT18=
PLAYORDER=
